<svg xmlns="http://www.w3.org/2000/svg" viewBox="0 0 300 40">
  <defs>
    <linearGradient x1="99.7%" y1="15.8%" x2="39.8%" y2="97.4%" id="atl-g">
      <stop stop-color="#0052CC" offset="0%"/>
      <stop stop-color="#2684FF" offset="92.3%"/>
    </linearGradient>
  </defs>
  <path d="M11.9 18.4c-.6-.6-1.6-.6-2 .2L.2 38.3c-.3.6.1 1.6 1 1.6h13.7c.4 0 .8-.2 1-.6 3-6 1.2-15.4-4-20.9z" fill="url(#atl-g)"/>
  <path d="M19 .6C13.6 9.4 13.3 18.9 16.8 26.1l6.6 13.2c.2.4.6.6 1 .6h13.7c.5 0 .8-.6.5-1L21 .6c-.3-.8-1.4-.8-2 0z" fill="#2684FF"/>
  <text x="46" y="32" font-family="'Charlie Display',system-ui,-apple-system,'Helvetica Neue',Arial,sans-serif" font-size="30" font-weight="700" fill="#0052CC" letter-spacing="1">ATLASSIAN</text>
</svg>
