<svg version="1.2" xmlns="http://www.w3.org/2000/svg" viewBox="0 0 1586 316" width="1586" height="316">
	<title>logo (6)-svg</title>
	<style>
		.s0 { fill: #000000 } 
		.s1 { fill: #4a90e2 } 
	</style>
	<g id="Layer">
		<g id="Layer">
			<g id="Layer">
				<path id="w2j6a" class="s0" d="m1363.9 111.9l115.7-111.9h4v67.5h90.4v53h-90.4v95.4c0 29.6 17.6 44.4 46 44.4q7.5 0.1 14.9-1.1 7.4-1.1 14.5-3.4 7.2-2.3 13.8-5.7 6.7-3.4 12.7-7.9v54.5q-8.1 4.4-16.7 7.7-8.7 3.3-17.7 5.4-9 2.1-18.2 3-9.2 0.9-18.4 0.6c-7.3 0.4-14.5 0-21.7-1.3-7.2-1.3-14.2-3.4-20.8-6.3-6.7-2.9-13-6.6-18.8-11-5.8-4.4-11.1-9.4-15.7-15-4.1-5.3-8.3-12.9-11.1-21.3-2.7-8.2-4.1-24.2-4.1-47.5v-90.5h-58.2z"/>
			</g>
			<g id="Layer">
				<path id="w2j6b" class="s0" d="m1105.7 74.3v29.7c8.2-5.7 16.9-10.8 25.9-15.2 9-4.4 18.3-8 27.8-11 9.6-2.9 19.4-5.2 29.3-6.6 9.9-1.5 19.9-2.2 29.9-2.1 22.2 0 42.9 3.8 62.1 11.4q6.1 2.2 11.9 5.3 5.7 3.1 10.8 7.1 5.2 3.9 9.6 8.7 4.5 4.7 8.1 10.1c9.8 14.8 15.1 34.3 15.1 63v134.7h-66.6v-123.6c0-24.1-9.2-41.4-20.3-51.7-11.1-10.3-29.6-17-55.8-17-33.4 0-63.7 12.7-87.8 34.9v157.2h-67.8v-234.7z"/>
			</g>
			<g id="Layer">
				<path id="w2j6c" fill-rule="evenodd" class="s0" d="m984.8 198.1l-256.5 0.2c0 20.9 17.3 41.2 39.6 50.7 31.5 13.6 50.1 14.9 86.2 14.9q16.3 0.3 32.4-1.3 16.2-1.7 32-5.4 15.9-3.6 31.1-9.2 15.3-5.5 29.8-12.9v48.6c-25.2 17.1-73.1 31.2-136.8 31.2-42.7 0-80.1-4.6-106.2-17.1-10.7-4.4-20.7-10.3-29.7-17.5-9-7.3-16.9-15.8-23.4-25.4-6.5-9.5-11.6-20-15.1-31-3.5-11-5.4-22.5-5.5-34-0.1-8.5 0.8-16.9 2.6-25.1 1.8-8.2 4.6-16.2 8.2-23.9 3.6-7.6 8-14.8 13.2-21.4 5.2-6.7 11.1-12.7 17.6-18.1 30-26.9 74.5-34.8 128-34.8 51.5 0 90 15 117.7 40.7 28.7 26.6 34.8 57.5 34.8 84.8zm-67.9-43.3q-1.7-5.5-4.5-10.6-2.8-5.1-6.5-9.5-3.7-4.4-8.3-8-4.5-3.6-9.7-6.3c-14.6-8.4-33.1-14.4-57.9-14.4q-7.9-0.3-15.9 0.4-8 0.7-15.8 2.4-7.8 1.7-15.4 4.3-7.5 2.7-14.7 6.2-5.7 2.8-10.7 6.5-5.1 3.7-9.5 8.3-4.4 4.6-7.9 9.8-3.4 5.3-6 11.1z"/>
			</g>
			<g id="Layer">
				<path id="w2j6d" class="s0" d="m583.2 74.3h76l-156.8 235.9h-24.7l-160.5-235.9h76.6l96.5 148.2z"/>
			</g>
			<g id="Layer">
				<path id="w2j6e" class="s1" d="m294.4 246.2v56.2c-37.4 8.9-73.8 13.3-109.5 13.3-59 0-102.4-11.1-135.7-33.3-7.6-4.6-14.5-10.2-20.6-16.6-6.1-6.4-11.3-13.6-15.6-21.4-4.2-7.8-7.4-16.1-9.4-24.7-2.1-8.6-3-17.5-2.7-26.3 0-37.6 14.2-68.8 46.6-92 32.3-22.9 74.1-33.4 129.8-33.4q13.9-0.1 27.7 0.9 13.9 1 27.6 3.1 13.8 2.1 27.3 5.2 13.5 3.2 26.8 7.4v57.4q-12.5-5.3-25.4-9.3-12.9-4-26.1-6.7-13.2-2.6-26.7-3.9-13.4-1.3-26.9-1.2c-31.1 0-64.4 7.8-83.6 20-4.3 2.6-8.3 5.8-11.9 9.5-3.5 3.6-6.6 7.7-9.1 12.2-2.5 4.4-4.4 9.2-5.6 14.1-1.3 4.9-1.9 10-1.9 15.1 0 20.7 12 38.5 31.7 50.9 20.6 13.3 59.9 19.3 94.5 19.3 28.7 0 61.5-5.2 98.7-15.8z"/>
			</g>
		</g>
	</g>
</svg>