<svg version="1.2" xmlns="http://www.w3.org/2000/svg" viewBox="0 0 1545 336" width="1545" height="336">
	<title>highhhh-svg</title>
	<style>
		.s0 { fill: #006dc7 } 
	</style>
	<path id="Layer" fill-rule="evenodd" class="s0" d="m167.8 335.7c-92.8 0-167.8-75-167.8-167.9 0-92.8 75-167.8 167.8-167.8 92.8 0 167.8 75 167.8 167.8 0 92.9-75 167.9-167.8 167.9zm140.2-167.9c0-77.3-62.9-140.2-140.2-140.2-77.3 0-140.2 62.9-140.2 140.2 0 7.8 6.3 14.2 14.1 14.2 7.8 0 14.1-6.4 14.1-14.2 0-61.7 50.3-112 112-112 61.7 0 112 50.3 112 112 0 61.8-50.3 112-112 112-24.8 0-49.1-8.3-68.6-23.5l30.9-31c10.8 7.1 23.8 11.3 37.7 11.3 37.9 0 68.7-30.8 68.7-68.8 0-37.9-30.8-68.7-68.7-68.7-37.9 0-68.7 30.8-68.7 68.7 0 14 4.1 26.9 11.3 37.7l-41.7 41.7c-5.5 5.5-5.5 14.4 0 19.8 26.4 26.5 61.7 41.1 99.1 41.1 77.3 0 140.2-62.9 140.2-140.3zm-140.2 40.6c-22.4 0-40.5-18.1-40.5-40.6 0-22.4 18.1-40.5 40.5-40.5 22.4 0 40.5 18.1 40.5 40.5 0 22.5-18.1 40.6-40.5 40.6z"/>
	<path id="Layer" fill-rule="evenodd" class="s0" d="m532.2 97.6v141.2c0 7.4-6.1 13.4-13.6 13.4-7.5 0-13.6-6-13.6-13.4v-60.6h-86.5v60.6c0 7.4-6.2 13.4-13.7 13.4-7.4 0-13.4-6-13.4-13.4v-141.2c0-7.3 6.2-13.2 13.9-13.2 7.1 0 13.2 6 13.2 13.2v56.2h86.5v-56.2c0-7.4 6.2-13.2 14.1-13.2 7.1 0 13.1 6 13.1 13.2zm60.2 0v141.2c0 7.4-6.1 13.4-13.6 13.4-7.4 0-13.4-6-13.4-13.4v-141.2c0-7.3 6.2-13.2 13.8-13.2 7.2 0 13.2 6 13.2 13.2zm178.6 73.7v38.6c0 20.3-25.5 42.3-66.8 42.3-49.8 0-86-35.4-86-84.1 0-48.6 36.2-83.8 86-83.8 22.7 0 42.6 7.8 57.4 22.6 2.1 1.8 3.4 5 3.4 8.7 0 6.9-5.6 12.5-12.5 12.5-3.5 0-6.8-1.5-9.2-4.1-9.8-9.8-24.4-15.7-39.1-15.7-33.5 0-57.9 25.1-57.9 59.8 0 34.8 24.4 60.1 57.9 60.1 17.2 0 32-8 39.7-15.1v-35.1h-41.9c-6.7 0-12-5.3-12-12 0-6.6 5.3-11.7 12-11.7h51.4c9.7 0 17.6 7.6 17.6 17zm168.8-73.7v141.2c0 7.4-6.1 13.4-13.6 13.4-7.6 0-13.7-6-13.7-13.4v-60.6h-86.5v60.6c0 7.4-6.1 13.4-13.6 13.4-7.4 0-13.4-6-13.4-13.4v-141.2c0-7.3 6.2-13.2 13.9-13.2 7.1 0 13.1 6 13.1 13.2v56.2h86.5v-56.2c0-7.4 6.2-13.2 14.1-13.2 7.2 0 13.2 6 13.2 13.2zm150.4 105c0 24-16.4 49.6-62.2 49.6-23.4 0-45.3-7.7-58.5-20.5-2.2-2.5-3.3-5.5-3.3-8.5 0-6.4 4.8-13.2 12.5-13.2 2.7 0 5.7 0.9 7.7 2.4 8.7 7.3 23 16 42.6 16 24.8 0 33.6-12.6 33.6-23.4 0-15.8-17.9-20.5-38.6-26-26.1-6.9-55.7-14.7-55.7-47.8 0-27.2 24.6-46.9 58.3-46.9 21.1 0 41.6 6.7 53.5 17.6 2.2 2 3.6 5.1 3.6 8.5 0 6.8-5.9 12.5-12.8 12.5-2.6 0-5.3-0.9-7.4-2.4-11.1-8.1-24.5-12.4-38.8-12.4-17.2 0-28.8 8.6-28.8 21.5 0 12.9 16.5 17.3 35.7 22.3 26.1 6.8 58.6 15.4 58.6 50.7zm148-66.6c0 24.9-16.5 51.8-52.8 51.8h-42v50.9c0 7.4-6.1 13.5-13.5 13.5-7.4 0-13.3-6.1-13.3-13.5v-137c0-9.6 7.7-17.4 17.1-17.4h51.7c31.1 0 52.8 21.2 52.8 51.7zm-94.8 27.7h38.9c16.7 0 28.3-11.7 28.3-27.7 0-16.2-11.4-27.7-28.3-27.7h-38.9zm401.6-66.9c0 6.7-5.4 12.1-12 12.1h-39.9v129.8c0 7.4-6.1 13.5-13.7 13.5-7.4 0-13.5-6.1-13.5-13.5v-129.8h-39.9c-6.7 0-12-5.5-12-12.6 0-6.7 5.3-12 12-12h107c6.8 0 12 5.4 12 12.5zm-208.2 155.4c-46.4 0-83.9-37.5-83.9-84 0-46.4 37.5-83.9 83.9-83.9 46.5 0 84 37.5 84 83.9 0 46.5-37.5 84-84 84zm60-84c0-33.1-26.8-59.9-60-59.9-33.1 0-59.9 26.8-59.9 59.9 0 33.2 26.8 60 59.9 60 33.2 0 60-26.8 60-60z"/>
</svg>