<svg xmlns="http://www.w3.org/2000/svg" viewBox="0 0 100 36">
  <circle cx="7" cy="5" r="4.5" fill="#e2231a"/>
  <rect x="2.5" y="13" width="9" height="22" rx="0.5" fill="#e2231a"/>
  <path d="M20 22c0-5.5 4-9.5 9-9.5s9 4 9 9.5v13H30V23c0-2.8-1.8-5-4.5-5S21 20.2 21 23v12h-8V13.5h7z" fill="#e2231a"/>
  <path d="M46 35V17h-3.5v-4H46V8.5c0-5.5 3.5-8.5 8.5-8.5h3v7h-2.5c-2 0-3 1-3 3.5V13h5.5v4H52v18z" fill="#e2231a"/>
  <path d="M64.5 12c8.5 0 14 5.5 14 12.5S73 35.5 64.5 35.5 50.5 30 50.5 24.5 56 12 64.5 12zm0 7.5c-3 0-6 2-6 5s3 5 6 5 6-2 6-5-3-5-6-5z" fill="#e2231a"/>
  <path d="M83 35V13.5h8v5c2-3.5 5-5.5 9-5.5v8h-2.5c-4 0-6.5 2-6.5 6.5V35z" fill="#e2231a"/>
</svg>
