<svg version="1.2" xmlns="http://www.w3.org/2000/svg" viewBox="0 0 1485 478" width="1485" height="478">
	<title>sccaaa-svg</title>
	<style>
		.s0 { fill: #000000 } 
	</style>
	<path id="Layer" fill-rule="evenodd" class="s0" d="m1070.1 477.1c-3 0-6-0.6-8.8-1.8-2.8-1.1-5.4-2.8-7.5-5-2.2-2.1-3.9-4.7-5-7.5-1.2-2.8-1.8-5.8-1.8-8.8v-430.9c0-3 0.6-6 1.8-8.9 1.1-2.8 2.8-5.3 5-7.4 2.1-2.2 4.7-3.9 7.5-5 2.8-1.2 5.8-1.8 8.8-1.8 3 0 6 0.6 8.8 1.8 2.8 1.1 5.4 2.8 7.5 5 2.2 2.1 3.9 4.6 5 7.4 1.2 2.9 1.8 5.9 1.8 8.9v430.9c0 3-0.6 6-1.8 8.8-1.1 2.8-2.8 5.4-5 7.5-2.1 2.2-4.7 3.9-7.5 5-2.8 1.2-5.8 1.8-8.8 1.8zm261.7 0c-89.2 0-161.7-72.5-161.7-161.6 0-89.1 72.5-161.6 161.6-161.6 84.1 0 152.4 68.4 152.4 152.4v3c0 3.1-0.6 6.1-1.7 8.9-1.2 2.8-2.9 5.3-5 7.5-2.2 2.1-4.7 3.8-7.5 5-2.8 1.1-5.8 1.7-8.9 1.7h-166.2c-3 0-6-0.6-8.8-1.7-2.8-1.2-5.4-2.9-7.5-5-2.2-2.2-3.9-4.7-5-7.5-1.2-2.8-1.8-5.8-1.8-8.9 0-3 0.6-6 1.8-8.8 1.1-2.8 2.8-5.3 5-7.5 2.1-2.1 4.7-3.8 7.5-5 2.8-1.1 5.8-1.7 8.8-1.7h141.3c-9.4-49.1-52.6-86.2-104.3-86.2-63.7 0-115.5 51.8-115.5 115.4 0 63.6 51.8 115.4 115.5 115.4 38.4 0 74.1-16.1 98-44.2 1.9-2.3 4.3-4.2 7-5.6 2.7-1.3 5.7-2.2 8.7-2.4 3-0.3 6 0.1 8.9 1 2.9 0.9 5.6 2.4 7.9 4.4 2.3 1.9 4.2 4.3 5.6 7 1.4 2.7 2.2 5.7 2.5 8.7 0.2 3-0.1 6.1-1.1 9-0.9 2.8-2.4 5.5-4.4 7.8-32.6 38.4-81.1 60.5-133.1 60.5zm-363.5-14.3c-1.2 2.8-2.9 5.4-5 7.5-2.2 2.2-4.7 3.9-7.5 5-2.8 1.2-5.8 1.8-8.8 1.8-3.1 0-6.1-0.6-8.9-1.8-2.8-1.1-5.3-2.8-7.5-5-2.1-2.1-3.8-4.6-5-7.5-1.1-2.8-1.7-5.8-1.7-8.8v-147.7c0-58.6-47.7-106.2-106.2-106.2-63.7 0-115.5 51.8-115.5 115.4 0 63.6 51.8 115.4 115.5 115.4 3 0 6 0.6 8.8 1.8 2.8 1.1 5.3 2.8 7.5 5 2.1 2.1 3.8 4.7 5 7.5 1.2 2.8 1.8 5.8 1.7 8.8 0.1 3-0.5 6-1.7 8.8-1.2 2.8-2.9 5.4-5 7.5-2.2 2.2-4.7 3.9-7.5 5-2.8 1.2-5.8 1.8-8.8 1.8-89.2 0-161.7-72.5-161.7-161.6 0-89.1 72.5-161.6 161.7-161.6 84 0 152.3 68.3 152.3 152.4v147.7c0 3-0.6 6-1.7 8.8zm-825.4 14.3c-46.1 0-93.1-14.3-132.3-40.2-2.5-1.7-4.7-3.8-6.4-6.3-1.7-2.6-2.9-5.4-3.5-8.3-0.6-3-0.6-6.1 0-9.1 0.6-2.9 1.7-5.8 3.4-8.3 1.7-2.5 3.8-4.7 6.4-6.4 2.5-1.7 5.3-2.9 8.3-3.5 2.9-0.6 6-0.6 9 0 2.9 0.6 5.8 1.7 8.3 3.4 18.4 12.1 56.6 32.5 106.9 32.5 49 0 82-18.5 82-46.2 0-27.3-23.7-35.8-90.6-46.1-28.8-4.4-58.6-9-82.4-20.2-39.6-18.6-47.9-49.5-47.9-72.2 0-44.4 40.6-92.3 129.7-92.3 33.7 0 82.6 7.1 123.7 40.9 4.7 3.9 7.7 9.5 8.3 15.6 0.6 6.1-1.2 12.2-5.1 16.9-3.9 4.8-9.5 7.7-15.6 8.3-6.1 0.6-12.2-1.2-16.9-5.1-30.6-25.2-68.2-30.4-94.4-30.4-41.5 0-83.5 15.8-83.5 46.1 0 27.9 23.8 36.5 91.1 46.8 28.7 4.4 58.4 8.9 82.1 20 39.4 18.5 47.7 49.2 47.7 71.8 0 45.9-39.7 92.3-128.3 92.3zm336.1 0c-89.2 0-161.7-72.5-161.7-161.6 0-89.1 72.5-161.6 161.7-161.6 51.1 0 98.6 25.5 126.9 68.1 1.7 2.6 2.9 5.4 3.5 8.4 0.5 2.9 0.5 6-0.1 9-0.6 2.9-1.7 5.8-3.4 8.3-1.7 2.5-3.9 4.7-6.4 6.3-2.5 1.7-5.4 2.9-8.3 3.5-3 0.6-6.1 0.5-9.1-0.1-2.9-0.6-5.8-1.7-8.3-3.4-2.5-1.7-4.6-3.9-6.3-6.4-19.8-29.8-52.9-47.5-88.5-47.5-63.7 0-115.5 51.8-115.5 115.4 0 63.6 51.8 115.4 115.5 115.4 35.6 0 68.7-17.7 88.5-47.5 1.7-2.5 3.8-4.7 6.3-6.4 2.5-1.7 5.4-2.9 8.3-3.5 3-0.6 6.1-0.6 9.1 0 2.9 0.6 5.8 1.8 8.3 3.5 2.5 1.6 4.7 3.8 6.4 6.3 1.7 2.5 2.8 5.3 3.4 8.3 0.6 3 0.6 6.1 0.1 9-0.6 3-1.8 5.8-3.5 8.4-28.3 42.6-75.8 68.1-126.9 68.1z"/>
</svg>