<svg version="1.2" xmlns="http://www.w3.org/2000/svg" viewBox="0 0 1542 293" width="1542" height="293">
	<title>Upstart_logo,_August_2013-svg</title>
	<style>
		.s0 { fill: #00918c } 
		.s1 { fill: #00ada8 } 
		.s2 { fill: #333333 } 
	</style>
	<g id="Layer">
		<g id="Layer">
			<path id="Layer" class="s0" d="m154.7 123.9l61.6 61.7h-0.1c-2.8-2.3-6.4-3.7-10.3-3.7-4 0-7.6 1.4-10.4 3.7v-0.2l-71.5 71.6c-28.1 28.1-74.1 28.1-102.2 0h-0.1c-28.1-28.2-28.1-74.2 0.1-102.4l32-32.1c28.4-26.8 73.1-26.4 100.9 1.4z"/>
			<path id="Layer" class="s1" d="m389.9 257c-28.1 28.1-74.1 28.1-102.3 0l-71.3-71.5-61.6-61.6c-27.8-27.8-72.5-28.2-100.8-1.4h-0.1l95.6-95.6 4-4q0.6-0.7 1.3-1.4c26.4-26.4 68.5-28 96.8-4.9q2.8 2.3 5.5 4.9v0.1l132.9 133c28.1 28.2 28.1 74.2 0 102.4z"/>
		</g>
		<g id="Layer">
			<path id="Layer" fill-rule="evenodd" class="s2" d="m685.8 154.5c0 62.3-35.1 93.6-89.6 93.6-54.2 0-88.8-31.3-88.8-91.8v-120.1h36.7v118.6c0 38.7 19.9 59.6 52.7 59.6 32.4 0 52.4-19.7 52.4-58.1v-120.1h36.6zm128.4 93.6c-25.9 0-42.3-13.2-53.3-27.8v72.2h-36.1v-205.1h36.1v26.2c11.6-16.4 28-29.5 53.3-29.5 37.2 0 73.3 29.5 73.3 82 0 52.4-35.8 82-73.3 82zm-8.4-132.7c-24.4 0-45.8 20-45.8 50.7 0 30.7 21.4 50.7 45.8 50.7 24.8 0 45-19.4 45-50.7 0-31-20.5-50.7-45-50.7zm165.3 132.4c-22.3 0-47-8.1-66.7-23.6l16.1-24.4c17 12.8 35.4 19.3 51.5 19.3 15.5 0 24.5-6.5 24.5-17v-0.5c0-12.3-16.7-16.4-35.2-22.1-23.2-6.6-49.1-16.1-49.1-46.2v-0.6c0-29.8 24.7-48 56-48 19.6 0 41.1 6.9 57.7 17.9l-14.3 25.6c-15.1-9.2-31.2-14.9-44.3-14.9-14 0-22.1 6.6-22.1 15.8v0.6c0 11.3 17 16.1 35.5 22.1 22.9 7.1 48.8 17.6 48.8 45.9v0.6c0 33.1-25.6 49.5-58.4 49.5zm131.1-52.2c0 14 7.1 19.7 19.3 19.7 8.1 0 15.2-1.8 22.4-5.4v29.5c-9 5.1-19.1 8.1-32.5 8.1-26.5 0-45.3-11.7-45.3-46.3v-82.8h-19.9v-31h19.9v-43.2h36.1v43.2h42.3v31h-42.3zm166.2 29.8c-10.8 12.8-27.1 22.7-51 22.7-29.8 0-56-17-56-48.6v-0.6c0-34 27.1-50.7 63.8-50.7 19 0 31.2 2.7 43.5 6.5v-3.8c0-21.8-13.7-33.7-38.8-33.7-17.5 0-30.6 3.9-44.9 9.8l-9.9-28.9c17.3-7.7 34.3-13.1 59.9-13.1 46.5 0 69.1 24.4 69.1 66.5v93.3c0 0-35.7 0-35.7 0zm0.8-47.4c-9.2-3.6-22-6.3-36-6.3-22.6 0-36 9.3-36 25.4v0.6c0 14.9 13.4 23.2 30.4 23.2 23.8 0 41.6-13.4 41.6-33.1zm106.7 66.8h-36.1v-157.4h36.1v35.5c9.8-23.6 28-39.7 55.7-38.5v38.2h-2.1c-31.6 0-53.6 20.5-53.6 62.3 0 0 0 59.9 0 59.9zm123-49.2c0 14 7.1 19.7 19.3 19.7 8.1 0 15.2-1.8 22.4-5.4v29.5c-9 5.1-19.1 8.1-32.5 8.1-26.5 0-45.3-11.7-45.3-46.2v-82.9h-19.9v-31h19.9v-43.2h36.1v43.2h42.2v31h-42.2z"/>
		</g>
	</g>
</svg>